<svg xmlns:dc="http://purl.org/dc/elements/1.1/"
  xmlns:cc="http://creativecommons.org/ns#"
  xmlns:rdf="http://www.w3.org/1999/02/22-rdf-syntax-ns#"
  xmlns:svg="http://www.w3.org/2000/svg"
  xmlns="http://www.w3.org/2000/svg"
  xmlns:xlink="http://www.w3.org/1999/xlink" id="svg498466" viewBox="0 0 1024 768" version="1.1">
  <metadata id="metadata498472">
    <rdf:rdf>
      <cc:work rdf:about="">
        <dc:format>image/svg+xml</dc:format>
        <dc:type rdf:resource="http://purl.org/dc/dcmitype/StillImage"></dc:type>
      </cc:work>
    </rdf:rdf>
  </metadata>
  <defs id="defs498470"></defs>
  <linearGradient spreadMethod="pad" y2="30%" x2="-10%" y1="120%" x1="30%" id="3d_gradient2-logo-9e7798db-00e9-48a6-a543-1e70b6e316fe">
    <stop id="stop498447" stop-opacity="1" stop-color="#ffffff" offset="0%"></stop>
    <stop id="stop498449" stop-opacity="1" stop-color="#000000" offset="100%"></stop>
  </linearGradient>
  <linearGradient gradientTransform="rotate(-30)" spreadMethod="pad" y2="30%" x2="-10%" y1="120%" x1="30%" id="3d_gradient3-logo-9e7798db-00e9-48a6-a543-1e70b6e316fe">
    <stop id="stop498452" stop-opacity="1" stop-color="#ffffff" offset="0%"></stop>
    <stop id="stop498454" stop-opacity="1" stop-color="#cccccc" offset="50%"></stop>
    <stop id="stop498456" stop-opacity="1" stop-color="#000000" offset="100%"></stop>
  </linearGradient>
  <g id="logo-group">
    <image xlink:href="" id="container" x="272" y="144" width="480" height="480" style="display: none;" transform="translate(0 0)"></image>
    <g id="logo-center" transform="translate(0 0)">
      <image xlink:href="" id="icon_container" style="display: none;" x="0" y="0"></image>
      <g id="slogan" style="font-style:oblique;font-weight:300;font-size:32px;line-height:1;font-family:'Nunito Sans';font-variant-ligatures:none;text-align:center;text-anchor:middle" transform="translate(0 0)">
        <path id="path498474" style="font-style:oblique;font-weight:300;font-size:32px;line-height:1;font-family:'Nunito Sans';font-variant-ligatures:none;text-align:center;text-anchor:middle" d="m 341.35937,-21.53125 -0.67187,3.328125 q -1.29688,-1.484375 -2.95313,-2.21875 -1.65625,-0.734375 -3.6875,-0.734375 -4,0 -6.625,2.453125 -2.60937,2.4375 -3.53125,7.0625 -0.92187,4.609375 0.70313,7.0625 1.64062,2.4375 5.64062,2.4375 2.03125,0 3.98438,-0.734375 1.95312,-0.734375 3.84375,-2.21875 l -0.65625,3.296875 q -1.875,1.125 -3.84375,1.6875 -1.96875,0.5625 -4.03125,0.5625 -5.29688,0 -7.70313,-3.234375 -2.39062,-3.25 -1.26562,-8.859375 1.125,-5.625 4.8125,-8.859375 3.70312,-3.25 9,-3.25 2.09375,0 3.82812,0.5625 1.75,0.546875 3.15625,1.65625 z" stroke-width="0" stroke-linejoin="miter" stroke-miterlimit="2" fill="#223674" stroke="#223674" transform="translate(1.1368683772161603e-13 352.76815625) translate(365.773205 55.9375) scale(0.75) translate(-320.2025 23.75)"></path>
        <path id="path498476" style="font-style:oblique;font-weight:300;font-size:32px;line-height:1;font-family:'Nunito Sans';font-variant-ligatures:none;text-align:center;text-anchor:middle" d="m 360.32812,-17.5 -3.5,17.5 h -2.89062 l 3.04687,-15.203125 h -9.32812 L 344.60937,0 h -2.89062 l 3.5,-17.5 z" stroke-width="0" stroke-linejoin="miter" stroke-miterlimit="2" fill="#223674" stroke="#223674" transform="translate(1.1368683772161603e-13 352.76815625) translate(381.9103925 60.625) scale(0.75) translate(-341.71875 17.5)"></path>
        <path id="path498478" style="font-style:oblique;font-weight:300;font-size:32px;line-height:1;font-family:'Nunito Sans';font-variant-ligatures:none;text-align:center;text-anchor:middle" d="m 372.64062,-15.484375 q -2.3125,0 -4.01562,1.8125 -1.70313,1.796875 -2.32813,4.9375 -0.625,3.140625 0.34375,4.953125 0.96875,1.796875 3.29688,1.796875 2.29687,0 4,-1.8125 1.71875,-1.8125 2.34375,-4.9375 0.625,-3.109375 -0.35938,-4.921875 -0.98437,-1.828125 -3.28125,-1.828125 z m 0.48438,-2.4375 q 3.75,0 5.40625,2.4375 1.65625,2.4375 0.79687,6.75 -0.85937,4.296875 -3.5,6.75 -2.625,2.4375 -6.375,2.4375 -3.76562,0 -5.40625,-2.4375 -1.64062,-2.453125 -0.78125,-6.75 0.85938,-4.3125 3.46875,-6.75 2.625,-2.4375 6.39063,-2.4375 z" stroke-width="0" stroke-linejoin="miter" stroke-miterlimit="2" fill="#223674" stroke="#223674" transform="translate(1.1368683772161603e-13 352.76815625) translate(397.84898749999996 60.30859375) scale(0.75) translate(-362.97021 17.921875)"></path>
        <path id="path498480" style="font-style:oblique;font-weight:300;font-size:32px;line-height:1;font-family:'Nunito Sans';font-variant-ligatures:none;text-align:center;text-anchor:middle" d="m 385.64062,-2.625 -1.85937,9.28125 h -2.89063 L 385.71875,-17.5 h 2.89062 l -0.53125,2.65625 q 1.21875,-1.5625 2.75,-2.3125 1.53125,-0.765625 3.45313,-0.765625 3.1875,0 4.67187,2.53125 1.5,2.53125 0.67188,6.65625 -0.82813,4.125 -3.32813,6.65625 -2.5,2.53125 -5.6875,2.53125 -1.92187,0 -3.15625,-0.75 -1.21875,-0.765625 -1.8125,-2.328125 z m 11,-6.109375 q 0.625,-3.171875 -0.3125,-4.96875 -0.9375,-1.8125 -3.21875,-1.8125 -2.28125,0 -3.95312,1.8125 -1.67188,1.796875 -2.29688,4.96875 -0.64062,3.171875 0.29688,4.984375 0.95312,1.796875 3.23437,1.796875 2.28125,0 3.9375,-1.796875 1.67188,-1.8125 2.3125,-4.984375 z" stroke-width="0" stroke-linejoin="miter" stroke-miterlimit="2" fill="#223674" stroke="#223674" transform="translate(1.1368683772161603e-13 352.76815625) translate(411.289295 60.30859375) scale(0.75) translate(-380.89062 17.921875)"></path>
        <path id="path498482" style="font-style:oblique;font-weight:300;font-size:32px;line-height:1;font-family:'Nunito Sans';font-variant-ligatures:none;text-align:center;text-anchor:middle" d="m 404.0625,-17.5 h 16.76562 l -0.45312,2.296875 h -6.96875 L 410.35937,0 h -2.82812 l 3.04687,-15.203125 h -6.96875 z" stroke-width="0" stroke-linejoin="miter" stroke-miterlimit="2" fill="#223674" stroke="#223674" transform="translate(1.1368683772161603e-13 352.76815625) translate(428.3283575 60.625) scale(0.75) translate(-403.60937 17.5)"></path>
        <path id="path498484" style="font-style:oblique;font-weight:300;font-size:32px;line-height:1;font-family:'Nunito Sans';font-variant-ligatures:none;text-align:center;text-anchor:middle" d="m 449.95312,-17.5 -3.5,17.5 h -2.89062 l 3.04687,-15.203125 h -9.32812 L 434.23437,0 h -2.89062 l 3.5,-17.5 z" stroke-width="0" stroke-linejoin="miter" stroke-miterlimit="2" fill="#223674" stroke="#223674" transform="translate(1.1368683772161603e-13 352.76815625) translate(449.12914249999994 60.625) scale(0.75) translate(-431.34375 17.5)"></path>
        <path id="path498486" style="font-style:oblique;font-weight:300;font-size:32px;line-height:1;font-family:'Nunito Sans';font-variant-ligatures:none;text-align:center;text-anchor:middle" d="m 462.26562,-15.484375 q -2.3125,0 -4.01562,1.8125 -1.70313,1.796875 -2.32813,4.9375 -0.625,3.140625 0.34375,4.953125 0.96875,1.796875 3.29688,1.796875 2.29687,0 4,-1.8125 1.71875,-1.8125 2.34375,-4.9375 0.625,-3.109375 -0.35938,-4.921875 -0.98437,-1.828125 -3.28125,-1.828125 z m 0.48438,-2.4375 q 3.75,0 5.40625,2.4375 1.65625,2.4375 0.79687,6.75 -0.85937,4.296875 -3.5,6.75 -2.625,2.4375 -6.375,2.4375 -3.76562,0 -5.40625,-2.4375 -1.64062,-2.453125 -0.78125,-6.75 0.85938,-4.3125 3.46875,-6.75 2.625,-2.4375 6.39063,-2.4375 z" stroke-width="0" stroke-linejoin="miter" stroke-miterlimit="2" fill="#223674" stroke="#223674" transform="translate(1.1368683772161603e-13 352.76815625) translate(465.0677374999999 60.30859375) scale(0.75) translate(-452.59521 17.921875)"></path>
        <path id="path498488" style="font-style:oblique;font-weight:300;font-size:32px;line-height:1;font-family:'Nunito Sans';font-variant-ligatures:none;text-align:center;text-anchor:middle" d="m 482.0625,0 1.46875,-7.359375 h -5.35938 q -2.39062,0 -3.6875,-1.484375 -1.17187,-1.34375 -0.59375,-4.21875 l 0.89063,-4.4375 h 2.875 l -0.82813,4.171875 q -0.375,1.828125 0.25,2.75 0.65625,0.921875 2.28125,0.921875 H 484 L 485.5625,-17.5 h 2.875 l -3.5,17.5 z" stroke-width="0" stroke-linejoin="miter" stroke-miterlimit="2" fill="#223674" stroke="#223674" transform="translate(1.1368683772161603e-13 352.76815625) translate(480.8960524999999 60.625) scale(0.75) translate(-473.69963 17.5)"></path>
        <path id="path498490" style="font-style:oblique;font-weight:300;font-size:32px;line-height:1;font-family:'Nunito Sans';font-variant-ligatures:none;text-align:center;text-anchor:middle" d="m 509.26562,-17.5 -3.5,17.5 h -2.85937 l 2.8125,-14.046875 L 494.46875,0 h -3.6875 l 3.5,-17.5 h 2.85937 L 494.34375,-3.484375 505.5625,-17.5 Z" stroke-width="0" stroke-linejoin="miter" stroke-miterlimit="2" fill="#223674" stroke="#223674" transform="translate(1.1368683772161603e-13 352.76815625) translate(493.7072674999999 60.625) scale(0.75) translate(-490.78125 17.5)"></path>
        <path id="path498492" style="font-style:oblique;font-weight:300;font-size:32px;line-height:1;font-family:'Nunito Sans';font-variant-ligatures:none;text-align:center;text-anchor:middle" d="m 515.09375,-17.5 h 2.89062 l -1.42187,7.140625 h 9.32812 L 527.3125,-17.5 h 2.89062 l -3.5,17.5 h -2.89062 l 1.60937,-8.0625 h -9.32812 L 514.48437,0 h -2.89062 z" stroke-width="0" stroke-linejoin="miter" stroke-miterlimit="2" fill="#223674" stroke="#223674" transform="translate(1.1368683772161603e-13 352.76815625) translate(509.31664249999983 60.625) scale(0.75) translate(-511.59375 17.5)"></path>
        <path id="path498494" style="font-style:oblique;font-weight:300;font-size:32px;line-height:1;font-family:'Nunito Sans';font-variant-ligatures:none;text-align:center;text-anchor:middle" d="m 542.35937,-8.796875 q -3.48437,0 -5,0.796875 -1.5,0.796875 -1.875,2.71875 -0.3125,1.53125 0.51563,2.4375 0.82812,0.890625 2.5625,0.890625 2.39062,0 4.17187,-1.6875 1.78125,-1.703125 2.34375,-4.515625 l 0.14063,-0.640625 z m 5.96875,-1.1875 -2,9.984375 h -2.875 l 0.53125,-2.65625 q -1.29687,1.59375 -2.92187,2.359375 -1.625,0.75 -3.75,0.75 -2.6875,0 -3.96875,-1.5 -1.28125,-1.515625 -0.78125,-4.046875 0.59375,-2.953125 2.85937,-4.453125 2.28125,-1.5 6.20313,-1.5 h 4.03125 l 0.0625,-0.28125 q 0.39062,-1.984375 -0.70313,-3.0625 -1.07812,-1.09375 -3.4375,-1.09375 -1.5,0 -3,0.359375 -1.48437,0.359375 -2.9375,1.078125 l 0.53125,-2.65625 q 1.70313,-0.609375 3.23438,-0.90625 1.54687,-0.3125 2.95312,-0.3125 3.79688,0 5.28125,1.96875 1.48438,1.96875 0.6875,5.96875 z" stroke-width="0" stroke-linejoin="miter" stroke-miterlimit="2" fill="#223674" stroke="#223674" transform="translate(1.1368683772161603e-13 352.76815625) translate(524.9379424999997 60.30859375) scale(0.75) translate(-532.42215 17.921875)"></path>
        <path id="path498496" style="font-style:oblique;font-weight:300;font-size:32px;line-height:1;font-family:'Nunito Sans';font-variant-ligatures:none;text-align:center;text-anchor:middle" d="m 563.39062,-17.921875 q 2.59375,0 4.82813,1.09375 l -0.53125,2.6875 q -2.25,-1.34375 -4.65625,-1.34375 -3.10938,0 -4.70313,1.75 -1.57812,1.734375 -2.09375,3.375 h 8.78125 l -0.46875,2.296875 h -8.875 q -0.375,3.40625 0.98438,4.75 1.375,1.328125 3.67187,1.328125 2.45313,0 5.20313,-1.34375 L 565,-0.671875 q -2.53125,1.125 -5.48438,1.125 -4.01562,0 -5.8125,-2.484375 -1.78125,-2.484375 -0.9375,-6.703125 0.84375,-4.234375 3.6875,-6.703125 2.84375,-2.484375 6.9375,-2.484375 z" stroke-width="0" stroke-linejoin="miter" stroke-miterlimit="2" fill="#223674" stroke="#223674" transform="translate(1.1368683772161603e-13 352.76815625) translate(539.9921374999998 60.30859375) scale(0.75) translate(-552.49441 17.921875)"></path>
        <path id="path498498" style="font-style:oblique;font-weight:300;font-size:32px;line-height:1;font-family:'Nunito Sans';font-variant-ligatures:none;text-align:center;text-anchor:middle" d="m 571.25,-17.5 h 16.76562 l -0.45312,2.296875 h -6.96875 L 577.54687,0 h -2.82812 l 3.04687,-15.203125 h -6.96875 z" stroke-width="0" stroke-linejoin="miter" stroke-miterlimit="2" fill="#223674" stroke="#223674" transform="translate(1.1368683772161603e-13 352.76815625) translate(553.7189824999998 60.625) scale(0.75) translate(-570.79687 17.5)"></path>
        <path id="path498500" style="font-style:oblique;font-weight:300;font-size:32px;line-height:1;font-family:'Nunito Sans';font-variant-ligatures:none;text-align:center;text-anchor:middle" d="m 600.375,-5.1875 q 0.28125,-1.40625 -0.59375,-2.140625 -0.875,-0.734375 -2.84375,-0.734375 h -4.09375 l -1.15625,5.765625 h 4.09375 q 1.96875,0 3.14062,-0.734375 1.17188,-0.75 1.45313,-2.15625 z M 591.84375,-17.5 h 2.89062 l -1.42187,7.140625 h 4.21875 q 3.34375,0 4.89062,1.28125 1.54688,1.265625 1.01563,3.890625 -0.51563,2.625 -2.57813,3.90625 Q 598.79687,0 595.45312,0 h -7.10937 z" stroke-width="0" stroke-linejoin="miter" stroke-miterlimit="2" fill="#223674" stroke="#223674" transform="translate(1.1368683772161603e-13 352.76815625) translate(566.8791424999998 60.625) scale(0.75) translate(-588.34375 17.5)"></path>
        <path id="path498502" style="font-style:oblique;font-weight:300;font-size:32px;line-height:1;font-family:'Nunito Sans';font-variant-ligatures:none;text-align:center;text-anchor:middle" d="m 623.28125,-16.828125 -0.53125,2.6875 q -1.07813,-0.671875 -2.25,-1 -1.15625,-0.34375 -2.40625,-0.34375 -2.79688,0 -4.70313,1.78125 -1.89062,1.765625 -2.53125,4.96875 -0.64062,3.203125 0.54688,4.984375 1.1875,1.765625 3.98437,1.765625 1.25,0 2.54688,-0.328125 1.29687,-0.34375 2.65625,-1.015625 l -0.53125,2.65625 q -1.32813,0.5625 -2.67188,0.84375 -1.34375,0.28125 -2.79687,0.28125 -3.95313,0 -5.78125,-2.484375 -1.82813,-2.484375 -0.98438,-6.703125 0.85938,-4.28125 3.6875,-6.734375 2.84375,-2.453125 6.9375,-2.453125 1.32813,0 2.53125,0.28125 1.21875,0.265625 2.29688,0.8125 z" stroke-width="0" stroke-linejoin="miter" stroke-miterlimit="2" fill="#223674" stroke="#223674" transform="translate(1.1368683772161603e-13 352.76815625) translate(581.2925824999999 60.30859375) scale(0.75) translate(-607.56167 17.921875)"></path>
        <path id="path498504" style="font-style:oblique;font-weight:300;font-size:32px;line-height:1;font-family:'Nunito Sans';font-variant-ligatures:none;text-align:center;text-anchor:middle" d="m 630.32812,-12.453125 q -0.25,1.296875 0.59375,2.03125 0.85938,0.734375 2.71875,0.734375 h 3.875 l 1.10938,-5.515625 h -3.875 q -1.85938,0 -3.01563,0.71875 -1.14062,0.71875 -1.40625,2.03125 z M 623.75,0 l 6.875,-7.671875 q -1.73438,-0.40625 -2.71875,-1.46875 -0.98438,-1.078125 -0.54688,-3.3125 0.51563,-2.53125 2.4375,-3.78125 Q 631.73437,-17.5 635.125,-17.5 h 6.84375 l -3.5,17.5 h -2.89063 l 1.48438,-7.390625 h -3.57813 L 626.84375,0 Z" stroke-width="0" stroke-linejoin="miter" stroke-miterlimit="2" fill="#223674" stroke="#223674" transform="translate(1.1368683772161603e-13 352.76815625) translate(593.4338299999998 60.625) scale(0.75) translate(-623.75 17.5)"></path>
        <path id="path498506" style="font-style:oblique;font-weight:300;font-size:32px;line-height:1;font-family:'Nunito Sans';font-variant-ligatures:none;text-align:center;text-anchor:middle" d="m 655.8125,-17.5 h 16.76562 l -0.45312,2.296875 h -6.96875 L 662.10937,0 h -2.82812 l 3.04687,-15.203125 h -6.96875 z" stroke-width="0" stroke-linejoin="miter" stroke-miterlimit="2" fill="#223674" stroke="#223674" transform="translate(1.1368683772161603e-13 352.76815625) translate(617.1408574999998 60.625) scale(0.75) translate(-655.35937 17.5)"></path>
        <path id="path498508" style="font-style:oblique;font-weight:300;font-size:32px;line-height:1;font-family:'Nunito Sans';font-variant-ligatures:none;text-align:center;text-anchor:middle" d="M 679.96875,1.625 Q 678.125,4.75 676.78125,5.703125 675.4375,6.65625 673.5,6.65625 h -2.29688 L 671.6875,4.25 h 1.6875 q 1.1875,0 1.95312,-0.5625 0.76563,-0.5625 1.98438,-2.65625 l 0.78125,-1.3125 L 674.45312,-17.5 H 677.5 l 2.73437,13.6875 8.20313,-13.6875 h 3.04687 z" stroke-width="0" stroke-linejoin="miter" stroke-miterlimit="2" fill="#223674" stroke="#223674" transform="translate(1.1368683772161603e-13 352.76815625) translate(629.0236699999998 60.625) scale(0.75) translate(-671.20312 17.5)"></path>
        <path id="path498510" style="font-style:oblique;font-weight:300;font-size:32px;line-height:1;font-family:'Nunito Sans';font-variant-ligatures:none;text-align:center;text-anchor:middle" d="m 693.375,-17.5 h 16.76562 l -0.45312,2.296875 h -6.96875 L 699.67187,0 h -2.82812 l 3.04687,-15.203125 h -6.96875 z" stroke-width="0" stroke-linejoin="miter" stroke-miterlimit="2" fill="#223674" stroke="#223674" transform="translate(1.1368683772161603e-13 352.76815625) translate(645.3127324999998 60.625) scale(0.75) translate(-692.92187 17.5)"></path>
      </g>
      <g id="title" style="font-style:normal;font-weight:800;font-size:72px;line-height:1;font-family:'Montserrat ExtraBold Alt1';font-variant-ligatures:none;text-align:center;text-anchor:middle" transform="translate(0 0)">
        <path id="path498513" style="font-style:normal;font-weight:800;font-size:72px;line-height:1;font-family:'Montserrat ExtraBold Alt1';font-variant-ligatures:none;text-align:center;text-anchor:middle" d="m 276.21575,-0.504 c 3.816,1.008 7.776,1.512 11.88,1.512 4.752,0 8.856,-0.72 12.24,-2.16 3.312,-1.44 5.832,-3.456 7.56,-5.904 1.656,-2.448 2.52,-5.184 2.52,-8.208 0,-3.456 -0.936,-6.264 -2.808,-8.28 -1.872,-2.016 -4.032,-3.528 -6.552,-4.464 -2.52,-0.936 -5.688,-1.8 -9.504,-2.664 -3.456,-0.72 -5.904,-1.368 -7.416,-2.088 -1.584,-0.648 -2.304,-1.656 -2.304,-3.024 0,-1.296 0.648,-2.376 1.944,-3.24 1.296,-0.864 3.312,-1.296 6.192,-1.296 4.464,0 9.144,1.296 13.968,3.888 l 4.392,-10.584 c -2.448,-1.44 -5.328,-2.52 -8.496,-3.24 -3.24,-0.72 -6.48,-1.152 -9.792,-1.152 -4.896,0 -9,0.72 -12.312,2.16 -3.312,1.44 -5.832,3.456 -7.488,5.904 -1.728,2.448 -2.52,5.256 -2.52,8.28 0,3.528 0.864,6.336 2.736,8.352 1.8,2.088 3.96,3.6 6.552,4.536 2.52,0.936 5.688,1.8 9.504,2.592 3.456,0.792 5.904,1.512 7.488,2.232 1.584,0.72 2.376,1.728 2.376,3.168 0,2.736 -2.736,4.104 -8.208,4.104 -2.88,0 -5.832,-0.432 -8.784,-1.368 -3.024,-0.864 -5.616,-2.088 -7.848,-3.6 l -4.68,10.512 c 2.376,1.728 5.472,3.024 9.36,4.032 z" stroke-width="0" stroke-linejoin="miter" stroke-miterlimit="2" fill="#223674" stroke="#223674" transform="translate(0 286.48965625) translate(267.008185 50) scale(1) translate(-266.85575 51.408)"></path>
        <path id="path498515" style="font-style:normal;font-weight:800;font-size:72px;line-height:1;font-family:'Montserrat ExtraBold Alt1';font-variant-ligatures:none;text-align:center;text-anchor:middle" d="m 359.62662,-41.616 c -1.87199,-2.808 -4.464,-4.968 -7.776,-6.48 -3.38399,-1.512 -7.344,-2.304 -11.88,-2.304 h -23.03999 v 11.232 h 22.17599 c 2.88,0 5.112,0.648 6.62401,1.944 1.43999,1.296 2.23199,3.168 2.23199,5.472 0,2.376 -0.792,4.176 -2.23199,5.472 -1.51201,1.296 -3.74401,1.872 -6.62401,1.872 H 316.93063 V 0 h 14.25599 v -13.176 h 8.784 c 4.536,0 8.49601,-0.72 11.88,-2.232 3.312,-1.512 5.90401,-3.672 7.776,-6.48 1.8,-2.736 2.736,-6.048 2.736,-9.864 0,-3.744 -0.936,-7.056 -2.736,-9.864 z" stroke-width="0" stroke-linejoin="miter" stroke-miterlimit="2" fill="#223674" stroke="#223674" transform="translate(0 286.48965625) translate(317.08306500000003 51.008) scale(1) translate(-316.93063 50.4)"></path>
        <path id="path498517" style="font-style:normal;font-weight:800;font-size:72px;line-height:1;font-family:'Montserrat ExtraBold Alt1';font-variant-ligatures:none;text-align:center;text-anchor:middle" d="m 380.96225,-2.376 c 4.248,2.304 9.072,3.384 14.4,3.384 5.328,0 10.08,-1.08 14.328,-3.384 4.248,-2.232 7.56,-5.328 10.008,-9.36 2.448,-3.96 3.672,-8.424 3.672,-13.464 0,-4.968 -1.224,-9.432 -3.672,-13.464 -2.448,-3.96 -5.76,-7.056 -10.008,-9.36 -4.248,-2.232 -9,-3.384 -14.328,-3.384 -5.328,0 -10.152,1.152 -14.4,3.384 -4.248,2.304 -7.56,5.4 -10.008,9.36 -2.448,4.032 -3.6,8.496 -3.6,13.464 0,5.04 1.152,9.504 3.6,13.464 2.448,4.032 5.76,7.128 10.008,9.36 z m 21.312,-10.224 c -2.088,1.224 -4.392,1.8 -6.912,1.8 -2.592,0 -4.896,-0.576 -6.912,-1.8 -2.088,-1.152 -3.744,-2.88 -4.896,-5.04 -1.224,-2.16 -1.8,-4.68 -1.8,-7.56 0,-2.808 0.576,-5.328 1.8,-7.488 1.152,-2.16 2.808,-3.888 4.896,-5.112 2.016,-1.152 4.32,-1.8 6.912,-1.8 2.52,0 4.824,0.648 6.912,1.8 2.016,1.224 3.672,2.952 4.896,5.112 1.152,2.16 1.8,4.68 1.8,7.488 0,2.88 -0.648,5.4 -1.8,7.56 -1.224,2.16 -2.88,3.888 -4.896,5.04 z" stroke-width="0" stroke-linejoin="miter" stroke-miterlimit="2" fill="#223674" stroke="#223674" transform="translate(0 286.48965625) translate(367.506685 50) scale(1) translate(-367.35425 51.408)"></path>
        <path id="path498519" style="font-style:normal;font-weight:800;font-size:72px;line-height:1;font-family:'Montserrat ExtraBold Alt1';font-variant-ligatures:none;text-align:center;text-anchor:middle" d="m 466.40487,-15.84 c 3.096,-1.512 5.544,-3.6 7.272,-6.336 1.728,-2.736 2.592,-5.904 2.592,-9.576 0,-3.744 -0.936,-7.056 -2.736,-9.864 -1.87199,-2.808 -4.464,-4.968 -7.776,-6.48 -3.38399,-1.512 -7.344,-2.304 -11.88,-2.304 h -23.03999 v 11.232 h 22.17599 c 2.88,0 5.112,0.648 6.62401,1.944 1.43999,1.296 2.23199,3.168 2.23199,5.472 0,2.376 -0.792,4.176 -2.23199,5.472 -1.51201,1.296 -3.74401,1.872 -6.62401,1.872 H 430.83688 V 0 h 14.25599 v -13.392 h 7.776 L 462.01287,0 h 15.26401 z" stroke-width="0" stroke-linejoin="miter" stroke-miterlimit="2" fill="#223674" stroke="#223674" transform="translate(0 286.48965625) translate(430.98931500000003 51.008) scale(1) translate(-430.83688 50.4)"></path>
        <path id="path498521" style="font-style:normal;font-weight:800;font-size:72px;line-height:1;font-family:'Montserrat ExtraBold Alt1';font-variant-ligatures:none;text-align:center;text-anchor:middle" d="M 494.15863,-39.096 V 0 h 14.25599 v -39.096 h 15.40801 V -50.4 h -45.14401 v 11.304 z" stroke-width="0" stroke-linejoin="miter" stroke-miterlimit="2" fill="#223674" stroke="#223674" transform="translate(0 286.48965625) translate(478.83105500000005 51.008) scale(1) translate(-478.67862 50.4)"></path>
        <path id="path498523" style="font-style:normal;font-weight:800;font-size:72px;line-height:1;font-family:'Montserrat ExtraBold Alt1';font-variant-ligatures:none;text-align:center;text-anchor:middle" d="m 583.85487,-26.28 v 13.824 c -2.44799,1.152 -4.96799,1.656 -7.70399,1.656 -2.808,0 -5.25601,-0.576 -7.41601,-1.8 -2.15999,-1.224 -3.888,-2.952 -5.03999,-5.112 -1.22401,-2.16 -1.80001,-4.68 -1.80001,-7.488 0,-4.32 1.296,-7.848 3.96,-10.44 2.592,-2.592 6.12,-3.96 10.44001,-3.96 4.75199,0 8.784,1.872 12.24,5.616 l 9.07199,-8.208 c -2.52,-2.952 -5.616,-5.256 -9.35999,-6.84 -3.744,-1.584 -7.99201,-2.376 -12.672,-2.376 -5.4,0 -10.22401,1.152 -14.472,3.384 -4.32001,2.232 -7.63201,5.328 -10.00801,9.288 -2.44799,4.032 -3.6,8.496 -3.6,13.536 0,5.04 1.15201,9.576 3.6,13.536 2.376,4.032 5.688,7.128 9.93601,9.36 4.17599,2.232 8.928,3.312 14.25599,3.312 3.74401,0 7.488,-0.504 11.232,-1.656 3.744,-1.08 7.05601,-2.664 9.93601,-4.752 v -20.88 z" stroke-width="0" stroke-linejoin="miter" stroke-miterlimit="2" fill="#375ea1" stroke="#375ea1" transform="translate(0 286.48965625) translate(547.6473050000001 50) scale(1) translate(-547.49487 51.408)"></path>
        <path id="path498525" style="font-style:normal;font-weight:800;font-size:72px;line-height:1;font-family:'Montserrat ExtraBold Alt1';font-variant-ligatures:none;text-align:center;text-anchor:middle" d="m 645.45312,-50.4 h -39.96 v 11.016 h 39.96 z m 0,19.512 h -39.96 v 10.656 h 39.96 z m -39.96,19.872 V 0 h 39.96 v -11.016 z" stroke-width="0" stroke-linejoin="miter" stroke-miterlimit="2" fill="#375ea1" stroke="#375ea1" transform="translate(0 286.48965625) translate(605.6455550000001 51.008) scale(1) translate(-605.49312 50.4)"></path>
        <path id="path498527" style="font-style:normal;font-weight:800;font-size:72px;line-height:1;font-family:'Montserrat ExtraBold Alt1';font-variant-ligatures:none;text-align:center;text-anchor:middle" d="m 684.03612,-50.4 h -14.04 L 647.74812,0 h 14.54401 l 3.95999,-9.792 4.17601,-10.512 6.48,-16.128 6.47999,16.128 4.176,10.512 3.96001,9.792 h 14.832 z" stroke-width="0" stroke-linejoin="miter" stroke-miterlimit="2" fill="#375ea1" stroke="#375ea1" transform="translate(0 286.48965625) translate(647.900555 51.008) scale(1) translate(-647.74812 50.4)"></path>
        <path id="path498529" style="font-style:normal;font-weight:800;font-size:72px;line-height:1;font-family:'Montserrat ExtraBold Alt1';font-variant-ligatures:none;text-align:center;text-anchor:middle" d="m 745.96737,-15.84 c 3.096,-1.512 5.54401,-3.6 7.272,-6.336 1.728,-2.736 2.592,-5.904 2.592,-9.576 0,-3.744 -0.93599,-7.056 -2.736,-9.864 -1.87199,-2.808 -4.46399,-4.968 -7.77599,-6.48 -3.384,-1.512 -7.34401,-2.304 -11.88,-2.304 h -23.04001 v 11.232 h 22.176 c 2.88,0 5.112,0.648 6.62401,1.944 1.43999,1.296 2.23199,3.168 2.23199,5.472 0,2.376 -0.792,4.176 -2.23199,5.472 -1.51201,1.296 -3.74401,1.872 -6.62401,1.872 h -22.176 V 0 h 14.25601 v -13.392 h 7.77599 L 741.57537,0 h 15.26401 z" stroke-width="0" stroke-linejoin="miter" stroke-miterlimit="2" fill="#375ea1" stroke="#375ea1" transform="translate(0 286.48965625) translate(710.5518050000001 51.008) scale(1) translate(-710.39937 50.4)"></path>
      </g>
      <image xlink:href="" id="icon" style="display: none;" x="0" y="0"></image>
    </g>
  </g>
</svg>